REM DIRINDEX 1\2\6,1\2\7,1\2\8,1\2\9,1\3\10,1\3\11,1\4\12,1\4\13,1\4\14,1\5\15,1\5\16,1\5\17
REM DIRNAME cjc020,folder01,folder02,folder03,folder04,folder05,folder06,folder07,folder08,folder09,folder10,folder11,folder12,folder13,folder14,folder15,folder16
TITLE ""
FILE "1900_3_083 sec14_1367_1383.mp3" MP3
  TRACK 01 AUDIO
    TITLE "0:"
    INDEX 01 00:00:00
  TRACK 02 AUDIO
    TITLE "17:cjc020_8714"
    INDEX 01 00:00:13
  TRACK 03 AUDIO
    TITLE "0:"
    INDEX 01 00:01:19
  TRACK 04 AUDIO
    TITLE "16:cjc020_8715"
    INDEX 01 00:01:32
  TRACK 05 AUDIO
    TITLE "0:"
    INDEX 01 00:02:30
  TRACK 06 AUDIO
    TITLE "17:cjc020_8716"
    INDEX 01 00:03:19
  TRACK 07 AUDIO
    TITLE "0:"
    INDEX 01 00:04:38
  TRACK 08 AUDIO
    TITLE "16:cjc020_8717"
    INDEX 01 00:04:40
  TRACK 09 AUDIO
    TITLE "0:"
    INDEX 01 00:05:56
  TRACK 10 AUDIO
    TITLE "17:cjc020_8718"
    INDEX 01 00:06:39
  TRACK 11 AUDIO
    TITLE "0:"
    INDEX 01 00:07:41
  TRACK 12 AUDIO
    TITLE "16:cjc020_8719"
    INDEX 01 00:07:54
  TRACK 13 AUDIO
    TITLE "0:"
    INDEX 01 00:09:02
  TRACK 14 AUDIO
    TITLE "17:cjc020_8720"
    INDEX 01 00:09:55
  TRACK 15 AUDIO
    TITLE "0:"
    INDEX 01 00:10:55
  TRACK 16 AUDIO
    TITLE "16:cjc020_8721"
    INDEX 01 00:10:65
  TRACK 17 AUDIO
    TITLE "0:"
    INDEX 01 00:12:07
  TRACK 18 AUDIO
    TITLE "17:cjc020_8722"
    INDEX 01 00:12:69
  TRACK 19 AUDIO
    TITLE "0:"
    INDEX 01 00:13:57
  TRACK 20 AUDIO
    TITLE "16:cjc020_8723"
    INDEX 01 00:13:63
  TRACK 21 AUDIO
    TITLE "0:"
    INDEX 01 00:14:70
  TRACK 22 AUDIO
    TITLE "17:cjc020_8724"
    INDEX 01 00:15:46
  TRACK 23 AUDIO
    TITLE "0:"
    INDEX 01 00:16:55
  TRACK 24 AUDIO
    TITLE "16:cjc020_8725"
    INDEX 01 00:16:61
  TRACK 25 AUDIO
    TITLE "0:"
    INDEX 01 00:18:07
  TRACK 26 AUDIO
    TITLE "17:cjc020_8726"
    INDEX 01 00:18:64
  TRACK 27 AUDIO
    TITLE "0:"
    INDEX 01 00:19:73
  TRACK 28 AUDIO
    TITLE "16:cjc020_8727"
    INDEX 01 00:20:04
  TRACK 29 AUDIO
    TITLE "0:"
    INDEX 01 00:21:19
  TRACK 30 AUDIO
    TITLE "17:cjc020_8728"
    INDEX 01 00:22:07
  TRACK 31 AUDIO
    TITLE "0:"
    INDEX 01 00:24:43
  TRACK 32 AUDIO
    TITLE "16:cjc020_8729"
    INDEX 01 00:24:57
  TRACK 33 AUDIO
    TITLE "0:"
    INDEX 01 00:25:66
  TRACK 34 AUDIO
    TITLE "17:cjc020_8730"
    INDEX 01 00:26:46
  TRACK 35 AUDIO
    TITLE "0:"
    INDEX 01 00:27:49
  TRACK 36 AUDIO
    TITLE "16:cjc020_8731"
    INDEX 01 00:27:55
  TRACK 37 AUDIO
    TITLE "0:"
    INDEX 01 00:28:55
  TRACK 38 AUDIO
    TITLE "17:cjc020_8732"
    INDEX 01 00:29:44
  TRACK 39 AUDIO
    TITLE "0:"
    INDEX 01 00:31:22
  TRACK 40 AUDIO
    TITLE "16:cjc020_8733"
    INDEX 01 00:31:27
  TRACK 41 AUDIO
    TITLE "0:"
    INDEX 01 00:32:37
  TRACK 42 AUDIO
    TITLE "17:cjc020_8734"
    INDEX 01 00:33:24
  TRACK 43 AUDIO
    TITLE "0:"
    INDEX 01 00:34:34
  TRACK 44 AUDIO
    TITLE "16:cjc020_8735"
    INDEX 01 00:34:42
  TRACK 45 AUDIO
    TITLE "0:"
    INDEX 01 00:35:41
  TRACK 46 AUDIO
    TITLE "17:cjc020_8736"
    INDEX 01 00:36:25
  TRACK 47 AUDIO
    TITLE "0:"
    INDEX 01 00:37:22
  TRACK 48 AUDIO
    TITLE "16:cjc020_8737"
    INDEX 01 00:37:28
  TRACK 49 AUDIO
    TITLE "0:"
    INDEX 01 00:38:37
  TRACK 50 AUDIO
    TITLE "17:cjc020_8738"
    INDEX 01 00:39:19
  TRACK 51 AUDIO
    TITLE "0:"
    INDEX 01 00:40:40
  TRACK 52 AUDIO
    TITLE "16:cjc020_8739"
    INDEX 01 00:40:46
  TRACK 53 AUDIO
    TITLE "0:"
    INDEX 01 00:41:67
  TRACK 54 AUDIO
    TITLE "17:cjc020_8740"
    INDEX 01 00:42:53
  TRACK 55 AUDIO
    TITLE "0:"
    INDEX 01 00:43:70
  TRACK 56 AUDIO
    TITLE "16:cjc020_8741"
    INDEX 01 00:43:74
  TRACK 57 AUDIO
    TITLE "0:"
    INDEX 01 00:44:73
  TRACK 58 AUDIO
    TITLE "17:cjc020_8742"
    INDEX 01 00:45:57
  TRACK 59 AUDIO
    TITLE "0:"
    INDEX 01 00:47:19
  TRACK 60 AUDIO
    TITLE "16:cjc020_8743"
    INDEX 01 00:47:27
  TRACK 61 AUDIO
    TITLE "0:"
    INDEX 01 00:48:22
  TRACK 62 AUDIO
    TITLE "17:cjc020_8744"
    INDEX 01 00:49:08
  TRACK 63 AUDIO
    TITLE "0:"
    INDEX 01 00:50:03
  TRACK 64 AUDIO
    TITLE "16:cjc020_8745"
    INDEX 01 00:50:09
  TRACK 65 AUDIO
    TITLE "0:"
    INDEX 01 00:51:16
  TRACK 66 AUDIO
    TITLE "17:cjc020_8746"
    INDEX 01 00:52:02
  TRACK 67 AUDIO
    TITLE "0:"
    INDEX 01 00:53:11
  TRACK 68 AUDIO
    TITLE "16:cjc020_8747"
    INDEX 01 00:53:13
  TRACK 69 AUDIO
    TITLE "0:"
    INDEX 01 00:54:25
